<mxfile host="app.diagrams.net" agent="Mozilla/5.0 (Windows NT 10.0; Win64; x64) AppleWebKit/537.36 (KHTML, like Gecko) Chrome/129.0.0.0 Safari/537.36" version="24.7.14">
  <diagram name="PÃ¡gina-1" id="vQy7vhVTxilEPnJhVt--">
    <mxGraphModel dx="2021" dy="698" grid="1" gridSize="10" guides="1" tooltips="1" connect="1" arrows="1" fold="1" page="1" pageScale="1" pageWidth="827" pageHeight="1169" math="0" shadow="0">
      <root>
        <mxCell id="0" />
        <mxCell id="1" parent="0" />
        <mxCell id="B5gkN5WuwXl-lVRbioVC-1" value="JOGO" style="whiteSpace=wrap;html=1;align=center;" vertex="1" parent="1">
          <mxGeometry x="364" y="520" width="100" height="40" as="geometry" />
        </mxCell>
        <mxCell id="B5gkN5WuwXl-lVRbioVC-2" value="EQUIPA" style="whiteSpace=wrap;html=1;align=center;" vertex="1" parent="1">
          <mxGeometry x="1070" y="110" width="100" height="40" as="geometry" />
        </mxCell>
        <mxCell id="B5gkN5WuwXl-lVRbioVC-3" value="JOGADOR" style="whiteSpace=wrap;html=1;align=center;" vertex="1" parent="1">
          <mxGeometry x="120" y="100" width="100" height="40" as="geometry" />
        </mxCell>
        <mxCell id="B5gkN5WuwXl-lVRbioVC-4" value="NumInterno" style="ellipse;whiteSpace=wrap;html=1;align=center;fontStyle=4;" vertex="1" parent="1">
          <mxGeometry x="1190" y="130" width="100" height="40" as="geometry" />
        </mxCell>
        <mxCell id="B5gkN5WuwXl-lVRbioVC-5" value="Nome" style="ellipse;whiteSpace=wrap;html=1;align=center;fontStyle=0;" vertex="1" parent="1">
          <mxGeometry x="-20" y="110" width="100" height="40" as="geometry" />
        </mxCell>
        <mxCell id="B5gkN5WuwXl-lVRbioVC-6" value="Genero" style="ellipse;whiteSpace=wrap;html=1;align=center;" vertex="1" parent="1">
          <mxGeometry x="40" y="160" width="100" height="40" as="geometry" />
        </mxCell>
        <mxCell id="B5gkN5WuwXl-lVRbioVC-7" value="Morada" style="ellipse;whiteSpace=wrap;html=1;align=center;" vertex="1" parent="1">
          <mxGeometry x="1090" y="180" width="100" height="40" as="geometry" />
        </mxCell>
        <mxCell id="B5gkN5WuwXl-lVRbioVC-8" value="AnoFundacao" style="ellipse;whiteSpace=wrap;html=1;align=center;" vertex="1" parent="1">
          <mxGeometry x="950" y="110" width="100" height="40" as="geometry" />
        </mxCell>
        <mxCell id="B5gkN5WuwXl-lVRbioVC-10" value="Nome" style="ellipse;whiteSpace=wrap;html=1;align=center;" vertex="1" parent="1">
          <mxGeometry x="1170" y="70" width="100" height="40" as="geometry" />
        </mxCell>
        <mxCell id="B5gkN5WuwXl-lVRbioVC-11" value="Campeonato" style="ellipse;shape=doubleEllipse;margin=3;whiteSpace=wrap;html=1;align=center;" vertex="1" parent="1">
          <mxGeometry x="1050" y="50" width="100" height="40" as="geometry" />
        </mxCell>
        <mxCell id="B5gkN5WuwXl-lVRbioVC-12" value="NumPorta" style="ellipse;whiteSpace=wrap;html=1;align=center;" vertex="1" parent="1">
          <mxGeometry x="1180" y="240" width="80" height="30" as="geometry" />
        </mxCell>
        <mxCell id="B5gkN5WuwXl-lVRbioVC-13" value="CodPostal" style="ellipse;whiteSpace=wrap;html=1;align=center;" vertex="1" parent="1">
          <mxGeometry x="1090" y="250" width="80" height="30" as="geometry" />
        </mxCell>
        <mxCell id="B5gkN5WuwXl-lVRbioVC-14" value="Localidade" style="ellipse;whiteSpace=wrap;html=1;align=center;" vertex="1" parent="1">
          <mxGeometry x="1010" y="230" width="80" height="30" as="geometry" />
        </mxCell>
        <mxCell id="B5gkN5WuwXl-lVRbioVC-15" value="Rua" style="ellipse;whiteSpace=wrap;html=1;align=center;" vertex="1" parent="1">
          <mxGeometry x="1230" y="190" width="80" height="30" as="geometry" />
        </mxCell>
        <mxCell id="B5gkN5WuwXl-lVRbioVC-16" value="Pais" style="ellipse;whiteSpace=wrap;html=1;align=center;" vertex="1" parent="1">
          <mxGeometry x="990" y="185" width="80" height="30" as="geometry" />
        </mxCell>
        <mxCell id="B5gkN5WuwXl-lVRbioVC-17" value="NumJogador" style="ellipse;whiteSpace=wrap;html=1;align=center;fontStyle=4;" vertex="1" parent="1">
          <mxGeometry x="180" y="165" width="100" height="40" as="geometry" />
        </mxCell>
        <mxCell id="B5gkN5WuwXl-lVRbioVC-18" value="DataNascimento" style="ellipse;whiteSpace=wrap;html=1;align=center;" vertex="1" parent="1">
          <mxGeometry x="220" y="50" width="100" height="40" as="geometry" />
        </mxCell>
        <mxCell id="B5gkN5WuwXl-lVRbioVC-19" value="Idade" style="ellipse;whiteSpace=wrap;html=1;align=center;dashed=1;" vertex="1" parent="1">
          <mxGeometry x="60" y="40" width="100" height="40" as="geometry" />
        </mxCell>
        <mxCell id="B5gkN5WuwXl-lVRbioVC-20" value="NumJogo" style="ellipse;whiteSpace=wrap;html=1;align=center;fontStyle=4;" vertex="1" parent="1">
          <mxGeometry x="264" y="470" width="100" height="40" as="geometry" />
        </mxCell>
        <mxCell id="B5gkN5WuwXl-lVRbioVC-21" value="Data" style="ellipse;whiteSpace=wrap;html=1;align=center;" vertex="1" parent="1">
          <mxGeometry x="240" y="570" width="100" height="40" as="geometry" />
        </mxCell>
        <mxCell id="B5gkN5WuwXl-lVRbioVC-22" value="Local" style="ellipse;whiteSpace=wrap;html=1;align=center;" vertex="1" parent="1">
          <mxGeometry x="370" y="610" width="100" height="40" as="geometry" />
        </mxCell>
        <mxCell id="B5gkN5WuwXl-lVRbioVC-23" value="Visitado" style="ellipse;whiteSpace=wrap;html=1;align=center;" vertex="1" parent="1">
          <mxGeometry x="470" y="585" width="100" height="40" as="geometry" />
        </mxCell>
        <mxCell id="B5gkN5WuwXl-lVRbioVC-25" value="Visitante" style="ellipse;whiteSpace=wrap;html=1;align=center;" vertex="1" parent="1">
          <mxGeometry x="550" y="530" width="100" height="40" as="geometry" />
        </mxCell>
        <mxCell id="B5gkN5WuwXl-lVRbioVC-26" value="Resultado?" style="ellipse;whiteSpace=wrap;html=1;align=center;" vertex="1" parent="1">
          <mxGeometry x="450" y="450" width="100" height="40" as="geometry" />
        </mxCell>
      </root>
    </mxGraphModel>
  </diagram>
</mxfile>
